<svg xmlns="http://www.w3.org/2000/svg" viewBox="0 0 600 600"><rect width="600" height="600" rx="120" fill="#16325C"/><g transform="translate(60,152) scale(.8)"><g stroke="#FFFFFF" stroke-width="14" stroke-linejoin="round" fill="#16325C"><path transform="rotate(5 120 92)" d="M65,92 H175 V282 L161.2,268 L147.5,282 L133.8,268 L120.0,282 L106.2,268 L92.5,282 L78.8,268 L65.0,282 Z"/><path transform="rotate(-5 480 92)" d="M425,92 H535 V302 L521.2,288 L507.5,302 L493.8,288 L480.0,302 L466.2,288 L452.5,302 L438.8,288 L425.0,302 Z"/><path d="M215,92 H385 V352 L370.8,338 L356.7,352 L342.5,338 L328.3,352 L314.2,338 L300.0,352 L285.8,338 L271.7,352 L257.5,338 L243.3,352 L229.2,338 L215.0,352 Z"/></g><rect x="30" y="58" width="540" height="28" rx="14" fill="#FFFFFF"/><rect x="60" y="18" width="18" height="50" fill="#FFFFFF"/><rect x="522" y="18" width="18" height="50" fill="#FFFFFF"/><rect x="94" y="74" width="52" height="30" rx="6" fill="#FFFFFF"/><rect x="274" y="74" width="52" height="30" rx="6" fill="#FFFFFF"/><rect x="454" y="74" width="52" height="30" rx="6" fill="#FFFFFF"/><rect x="245" y="140" width="60" height="16" fill="#F0B64E"/><rect x="245" y="180" width="110" height="16" fill="#F0B64E"/><rect x="245" y="212" width="110" height="16" fill="#F0B64E"/><rect x="245" y="244" width="110" height="16" fill="#F0B64E"/><path d="M248,300 l20,20 l36,-36" fill="none" stroke="#F0B64E" stroke-width="16"/><rect x="318" y="296" width="37" height="16" fill="#F0B64E"/></g></svg>
