<svg xmlns="http://www.w3.org/2000/svg" viewBox="0 0 600 600"><rect width="600" height="600" fill="#16325C"/><g transform="translate(114.0,109.0) scale(0.62)"><path d="M300,470 C298,390 296,330 318,262 C336,205 368,160 405,128" fill="none" stroke="#8DBB63" stroke-width="10" stroke-linecap="round"/><path d="M299,392 C280,360 252,330 222,306" fill="none" stroke="#8DBB63" stroke-width="7" stroke-linecap="round"/><path d="M314,282 C340,268 368,258 398,250" fill="none" stroke="#8DBB63" stroke-width="7" stroke-linecap="round"/><g transform="translate(297,425) rotate(-160)"><path d="M0,0 C44.5,-38.0 124.6,-28.5 178.0,0 C124.6,4.6 44.5,13.3 0,0Z" fill="#8DBB63"/><path d="M10.7,-1.9 Q89.0,-16.0 167.3,-1.1" fill="none" stroke="#A9D07F" stroke-width="3.4" stroke-linecap="round"/></g><g transform="translate(303,350) rotate(-20)"><path d="M0,0 C37.5,32.0 105.0,24.0 150.0,0 C105.0,-3.8 37.5,-11.2 0,0Z" fill="#8DBB63"/><path d="M9.0,1.6 Q75.0,13.4 141.0,1.0" fill="none" stroke="#A9D07F" stroke-width="2.9" stroke-linecap="round"/></g><g transform="translate(322,262) rotate(-128)"><path d="M0,0 C29.5,-27.0 82.6,-20.2 118.0,0 C82.6,3.2 29.5,9.4 0,0Z" fill="#8DBB63"/><path d="M7.1,-1.4 Q59.0,-11.3 110.9,-0.8" fill="none" stroke="#A9D07F" stroke-width="2.4" stroke-linecap="round"/></g><circle cx="214.0" cy="298.0" r="19.0" fill="#F6C03F"/><circle cx="214.0" cy="298.0" r="20.5" fill="none" stroke="#F6C03F" stroke-width="6.8" stroke-dasharray="0 8.74" stroke-linecap="round"/><circle cx="187.4" cy="315.0" r="19.0" fill="#F0B64E"/><circle cx="187.4" cy="315.0" r="20.5" fill="none" stroke="#F0B64E" stroke-width="6.8" stroke-dasharray="0 8.74" stroke-linecap="round"/><circle cx="239.5" cy="283.1" r="19.0" fill="#F6C03F"/><circle cx="239.5" cy="283.1" r="20.5" fill="none" stroke="#F6C03F" stroke-width="6.8" stroke-dasharray="0 8.74" stroke-linecap="round"/><circle cx="218.3" cy="265.0" r="19.0" fill="#F0B64E"/><circle cx="218.3" cy="265.0" r="20.5" fill="none" stroke="#F0B64E" stroke-width="6.8" stroke-dasharray="0 8.74" stroke-linecap="round"/><circle cx="241.7" cy="319.3" r="19.0" fill="#F6C03F"/><circle cx="241.7" cy="319.3" r="20.5" fill="none" stroke="#F6C03F" stroke-width="6.8" stroke-dasharray="0 8.74" stroke-linecap="round"/><circle cx="408.0" cy="246.0" r="18.0" fill="#F6C03F"/><circle cx="408.0" cy="246.0" r="19.4" fill="none" stroke="#F6C03F" stroke-width="6.5" stroke-dasharray="0 8.28" stroke-linecap="round"/><circle cx="382.8" cy="262.1" r="18.0" fill="#F0B64E"/><circle cx="382.8" cy="262.1" r="19.4" fill="none" stroke="#F0B64E" stroke-width="6.5" stroke-dasharray="0 8.28" stroke-linecap="round"/><circle cx="432.2" cy="231.9" r="18.0" fill="#F6C03F"/><circle cx="432.2" cy="231.9" r="19.4" fill="none" stroke="#F6C03F" stroke-width="6.5" stroke-dasharray="0 8.28" stroke-linecap="round"/><circle cx="412.0" cy="214.8" r="18.0" fill="#F0B64E"/><circle cx="412.0" cy="214.8" r="19.4" fill="none" stroke="#F0B64E" stroke-width="6.5" stroke-dasharray="0 8.28" stroke-linecap="round"/><circle cx="434.2" cy="266.2" r="18.0" fill="#F6C03F"/><circle cx="434.2" cy="266.2" r="19.4" fill="none" stroke="#F6C03F" stroke-width="6.5" stroke-dasharray="0 8.28" stroke-linecap="round"/><circle cx="412.0" cy="118.0" r="21.0" fill="#F6C03F"/><circle cx="412.0" cy="118.0" r="22.7" fill="none" stroke="#F6C03F" stroke-width="7.6" stroke-dasharray="0 9.66" stroke-linecap="round"/><circle cx="381.4" cy="134.5" r="21.0" fill="#F0B64E"/><circle cx="381.4" cy="134.5" r="22.7" fill="none" stroke="#F0B64E" stroke-width="7.6" stroke-dasharray="0 9.66" stroke-linecap="round"/><circle cx="440.2" cy="96.8" r="21.0" fill="#F6C03F"/><circle cx="440.2" cy="96.8" r="22.7" fill="none" stroke="#F6C03F" stroke-width="7.6" stroke-dasharray="0 9.66" stroke-linecap="round"/><circle cx="444.9" cy="141.5" r="21.0" fill="#F0B64E"/><circle cx="444.9" cy="141.5" r="22.7" fill="none" stroke="#F0B64E" stroke-width="7.6" stroke-dasharray="0 9.66" stroke-linecap="round"/><circle cx="402.6" cy="80.4" r="21.0" fill="#F6C03F"/><circle cx="402.6" cy="80.4" r="22.7" fill="none" stroke="#F6C03F" stroke-width="7.6" stroke-dasharray="0 9.66" stroke-linecap="round"/><circle cx="374.4" cy="99.2" r="21.0" fill="#F0B64E"/><circle cx="374.4" cy="99.2" r="22.7" fill="none" stroke="#F0B64E" stroke-width="7.6" stroke-dasharray="0 9.66" stroke-linecap="round"/><circle cx="419.1" cy="158.0" r="21.0" fill="#F6C03F"/><circle cx="419.1" cy="158.0" r="22.7" fill="none" stroke="#F6C03F" stroke-width="7.6" stroke-dasharray="0 9.66" stroke-linecap="round"/><path d="M300,470 C250,442 170,436 90,452 L90,546 C170,530 250,534 300,562 Z" fill="#A9B4C8"/><path d="M300,470 C350,442 430,436 510,452 L510,546 C430,530 350,534 300,562 Z" fill="#A9B4C8"/><path d="M300,455 C250,425 175,420 105,437 L105,528 C175,513 250,518 300,548 Z" fill="#FFFFFF"/><path d="M300,455 C350,425 425,420 495,437 L495,528 C425,513 350,518 300,548 Z" fill="#FFFFFF"/><path d="M300,462 V545" stroke="#DCE2EC" stroke-width="4"/><path d="M278,486 C245,462 190,457 200,464" fill="none" stroke="#C5CEDC" stroke-width="5" stroke-linecap="round"/><path d="M322,486 C355,462 410,457 400,464" fill="none" stroke="#C5CEDC" stroke-width="5" stroke-linecap="round"/><path d="M278,508 C245,484 190,479 135,489" fill="none" stroke="#C5CEDC" stroke-width="5" stroke-linecap="round"/><path d="M322,508 C355,484 410,479 465,489" fill="none" stroke="#C5CEDC" stroke-width="5" stroke-linecap="round"/><path d="M278,530 C245,506 190,501 135,511" fill="none" stroke="#C5CEDC" stroke-width="5" stroke-linecap="round"/><path d="M322,530 C355,506 410,501 465,511" fill="none" stroke="#C5CEDC" stroke-width="5" stroke-linecap="round"/></g></svg>